<svg width="49" height="32" viewBox="0 0 49 32" fill="none" xmlns="http://www.w3.org/2000/svg">
<path fill-rule="evenodd" clip-rule="evenodd" d="M42.8918 20.9644C40.2545 21.528 40.442 19.0634 40.1895 17.2336C39.9376 15.4037 38.7524 10.2686 38.1017 8.06806C37.4516 5.86812 34.2085 2.61969 29.1521 1.30284C24.4876 0.0877253 20.3501 0.864103 19.7375 0.991418C19.1205 1.09564 14.9842 1.88013 11.0855 4.71104C6.85919 7.7791 5.02703 11.9849 5.22581 14.2703C5.42459 16.5558 6.19784 21.7682 6.63166 23.5644C7.06548 25.3606 8.14065 27.5867 5.4796 28.0223C2.81855 28.4586 -0.025649 28.6271 0.583198 29.6637C1.19204 30.7003 2.3541 32.4565 18.4792 30.4557C18.4792 30.4557 23.6569 29.6643 25.0358 29.4147C25.0596 29.4109 25.0865 29.406 25.1146 29.4003C25.1427 29.3953 25.1696 29.3904 25.1934 29.3854C26.5679 29.1145 31.6775 27.9655 31.6775 27.9655C47.4225 23.9538 47.8626 21.8956 48.0507 20.7085C48.2389 19.5215 45.5291 20.4002 42.8924 20.9638L42.8918 20.9644ZM14.7842 18.3806L14.7561 18.3825C14.4079 18.38 14.1291 18.0998 14.1285 17.7566L14.126 13.2549C14.1285 12.9073 14.4091 12.629 14.7529 12.6283L14.7855 12.6296C15.133 12.6283 15.4118 12.9086 15.4124 13.2524V17.7584C15.4124 18.1017 15.1324 18.3838 14.7842 18.3813V18.3806ZM17.3509 22.227H17.3365C16.9846 22.2245 16.702 21.9411 16.7001 21.591V9.41549C16.7001 9.06849 16.9858 8.78203 17.334 8.78452H17.3521C17.6997 8.7839 17.986 9.06599 17.9878 9.41611V21.5916C17.9853 21.943 17.7022 22.2251 17.3509 22.227ZM19.9288 20.2985H19.9075C19.5525 20.2985 19.2693 20.0152 19.2674 19.6644L19.2699 11.3433C19.2687 10.9963 19.555 10.7099 19.9069 10.7111H19.9281C20.2788 10.7086 20.5626 10.9951 20.5645 11.3458V19.6632C20.5632 20.0139 20.2801 20.2966 19.9288 20.2985ZM23.1287 23.5132C23.1305 23.8633 22.8467 24.1461 22.4961 24.1479H22.4779C22.1297 24.1454 21.8434 23.8627 21.8459 23.5157L21.8434 6.85294C21.8422 6.50594 22.1285 6.21948 22.4804 6.22136H22.4948C22.8455 6.22011 23.1287 6.50345 23.1305 6.85357L23.1293 23.5132H23.1287ZM25.069 20.2985L25.044 20.2997C24.6964 20.301 24.4095 20.0152 24.412 19.6675L24.4095 11.3402C24.412 10.9926 24.6952 10.7099 25.0465 10.7086H25.0677C25.419 10.7099 25.7022 10.9926 25.7041 11.3433L25.7022 19.6682C25.7041 20.0183 25.4203 20.301 25.069 20.2991V20.2985ZM27.6381 22.2257H27.62C27.2687 22.2238 26.9855 21.9411 26.9843 21.5941V9.41549C26.9868 9.06787 27.2693 8.78203 27.6206 8.7839H27.635C27.9857 8.78328 28.2688 9.06599 28.2707 9.41611V21.5916C28.272 21.9417 27.985 22.2251 27.6375 22.2263L27.6381 22.2257ZM30.8399 13.2506L30.843 17.7559C30.8399 18.0998 30.5598 18.3819 30.2154 18.3788L30.1873 18.3806C29.8397 18.3819 29.5609 18.1017 29.5597 17.7547L29.5609 13.2524C29.5597 12.9054 29.8403 12.6271 30.1848 12.6265L30.2173 12.6277C30.5611 12.6277 30.8399 12.9073 30.8405 13.2512L30.8399 13.2506Z" fill="#1D9BF0"/>
</svg>
